# Blender v2.80 (sub 75) OBJ File: 'people.blend'
# www.blender.org
mtllib people.mtl
o Cube
v 5.708670 0.185888 -0.185978
v 5.708670 -0.185888 -0.185978
v 5.708670 0.185888 0.185978
v 5.708670 -0.185888 0.185978
v -0.009302 1.211069 -0.416154
v -0.003275 -1.000000 -1.000000
v -0.009302 1.211069 0.416154
v 0.001153 -1.000000 1.000000
v 0.625391 1.211069 -0.416154
v 2.007417 -1.000000 -1.000000
v 0.625391 1.211069 0.416154
v 2.007417 -1.000000 1.000000
v 2.161378 0.480299 -0.480299
v 2.161378 -0.480299 -0.480299
v 2.161378 0.480299 0.480299
v 2.161378 -0.480299 0.480299
v 5.708670 0.295795 -0.295885
v 5.708670 -0.295795 -0.295885
v 5.708670 0.295795 0.295885
v 5.708670 -0.295795 0.295885
v 5.817282 0.279391 -0.270657
v 5.817282 -0.279391 -0.270657
v 5.817282 0.279391 0.270657
v 5.817282 -0.279391 0.270657
v 5.859136 0.279391 -0.270657
v 5.859136 -0.279391 -0.270657
v 5.859136 0.279391 0.270657
v 5.859136 -0.279391 0.270657
v 5.987167 0.250539 -0.234355
v 5.987167 -0.250539 -0.234355
v 5.987167 0.250539 0.234355
v 5.987167 -0.250539 0.234355
v 8.263533 0.107775 -0.132416
v 8.263533 -0.107775 -0.132416
v 8.263533 0.107775 0.132416
v 8.263533 -0.107775 0.132416
v 8.229210 0.172637 -0.197278
v 8.229210 -0.172637 -0.197278
v 8.229210 0.172637 0.197278
v 8.229210 -0.172637 0.197278
v 8.278053 0.144718 -0.177805
v 8.278053 -0.144718 -0.177805
v 8.278053 0.144718 0.177805
v 8.278053 -0.144718 0.177805
v 8.660963 0.144718 -0.177805
v 8.660963 -0.144718 -0.177805
v 8.660963 0.144718 0.177805
v 8.660963 -0.144718 0.177805
v -0.013216 -4.244033 -0.785339
v -0.013216 -4.244033 0.785339
v 1.435993 -4.244033 -0.785339
v 1.435993 -4.244033 0.785339
v -0.040316 -4.789994 -0.785339
v -0.040316 -4.789994 0.785339
v 1.654293 -4.789994 -0.785339
v 1.654293 -4.789994 0.785339
v 0.561180 -8.743651 -0.249221
v 0.561180 -8.743651 0.249221
v 1.052797 -8.743651 -0.249221
v 1.052797 -8.743651 0.249221
v 0.337462 -8.658538 -0.508164
v 0.337462 -8.658538 0.508164
v 1.276515 -8.658538 -0.508164
v 1.276515 -8.658538 0.508164
v 0.420739 -8.838429 -0.391612
v 0.420739 -8.838429 0.391612
v 1.193238 -8.838429 -0.391612
v 1.193238 -8.838429 0.391612
v 0.643362 -11.626481 -0.151370
v 0.643362 -11.626481 0.151370
v 0.970615 -11.626481 -0.151370
v 0.970615 -11.626481 0.151370
v 0.543525 -11.594986 -0.251207
v 0.543525 -11.594986 0.251207
v 1.070452 -11.594986 -0.251207
v 1.070452 -11.594986 0.251207
v 0.596559 -11.652396 -0.204508
v 0.596559 -11.652396 0.204508
v 1.017418 -11.652396 -0.204508
v 1.017418 -11.652396 0.204508
v 0.596559 -11.970326 -0.136686
v 0.596559 -11.970326 1.133522
v 1.017418 -11.970326 -0.136686
v 1.017418 -11.970326 1.133522
v 2.007417 1.000000 1.000000
v 0.001153 1.000000 1.000000
v 2.007417 1.000000 -1.000000
v -0.003275 1.000000 -1.000000
v 0.886028 1.614409 0.785690
v 0.000688 1.614409 0.785690
v 0.886028 1.614409 -0.785690
v 0.000688 1.614409 -0.785690
v 0.886028 2.654080 0.785690
v 0.000688 2.654080 0.785690
v 0.886028 2.654080 -0.785690
v 0.000688 2.654080 -0.785690
v 0.671924 2.787616 0.664806
v -0.032812 2.787616 0.664806
v 0.671924 2.787616 -0.664806
v -0.032812 2.787616 -0.664806
v -5.708670 0.185888 -0.185978
v -5.708670 -0.185888 -0.185978
v -5.708670 0.185888 0.185978
v -5.708670 -0.185888 0.185978
v 0.009302 1.211069 -0.416154
v 0.003275 -1.000000 -1.000000
v 0.009302 1.211069 0.416154
v -0.001153 -1.000000 1.000000
v -0.625391 1.211069 -0.416154
v -2.007417 -1.000000 -1.000000
v -0.625391 1.211069 0.416154
v -2.007417 -1.000000 1.000000
v -2.161378 0.480299 -0.480299
v -2.161378 -0.480299 -0.480299
v -2.161378 0.480299 0.480299
v -2.161378 -0.480299 0.480299
v -5.708670 0.295795 -0.295885
v -5.708670 -0.295795 -0.295885
v -5.708670 0.295795 0.295885
v -5.708670 -0.295795 0.295885
v -5.817282 0.279391 -0.270657
v -5.817282 -0.279391 -0.270657
v -5.817282 0.279391 0.270657
v -5.817282 -0.279391 0.270657
v -5.859136 0.279391 -0.270657
v -5.859136 -0.279391 -0.270657
v -5.859136 0.279391 0.270657
v -5.859136 -0.279391 0.270657
v -5.987167 0.250539 -0.234355
v -5.987167 -0.250539 -0.234355
v -5.987167 0.250539 0.234355
v -5.987167 -0.250539 0.234355
v -8.263533 0.107775 -0.132416
v -8.263533 -0.107775 -0.132416
v -8.263533 0.107775 0.132416
v -8.263533 -0.107775 0.132416
v -8.229210 0.172637 -0.197278
v -8.229210 -0.172637 -0.197278
v -8.229210 0.172637 0.197278
v -8.229210 -0.172637 0.197278
v -8.278053 0.144718 -0.177805
v -8.278053 -0.144718 -0.177805
v -8.278053 0.144718 0.177805
v -8.278053 -0.144718 0.177805
v -8.660963 0.144718 -0.177805
v -8.660963 -0.144718 -0.177805
v -8.660963 0.144718 0.177805
v -8.660963 -0.144718 0.177805
v 0.013216 -4.244033 -0.785339
v 0.013216 -4.244033 0.785339
v -1.435993 -4.244033 -0.785339
v -1.435993 -4.244033 0.785339
v 0.040316 -4.789994 -0.785339
v 0.040316 -4.789994 0.785339
v -1.654293 -4.789994 -0.785339
v -1.654293 -4.789994 0.785339
v -0.561180 -8.743651 -0.249221
v -0.561180 -8.743651 0.249221
v -1.052797 -8.743651 -0.249221
v -1.052797 -8.743651 0.249221
v -0.337462 -8.658538 -0.508164
v -0.337462 -8.658538 0.508164
v -1.276515 -8.658538 -0.508164
v -1.276515 -8.658538 0.508164
v -0.420739 -8.838429 -0.391612
v -0.420739 -8.838429 0.391612
v -1.193238 -8.838429 -0.391612
v -1.193238 -8.838429 0.391612
v -0.643362 -11.626481 -0.151370
v -0.643362 -11.626481 0.151370
v -0.970615 -11.626481 -0.151370
v -0.970615 -11.626481 0.151370
v -0.543525 -11.594986 -0.251207
v -0.543525 -11.594986 0.251207
v -1.070452 -11.594986 -0.251207
v -1.070452 -11.594986 0.251207
v -0.596559 -11.652396 -0.204508
v -0.596559 -11.652396 0.204508
v -1.017418 -11.652396 -0.204508
v -1.017418 -11.652396 0.204508
v -0.596559 -11.970326 -0.136686
v -0.596559 -11.970326 1.133522
v -1.017418 -11.970326 -0.136686
v -1.017418 -11.970326 1.133522
v -2.007417 1.000000 1.000000
v -0.001153 1.000000 1.000000
v -2.007417 1.000000 -1.000000
v 0.003275 1.000000 -1.000000
v -0.886028 1.614409 0.785690
v -0.000688 1.614409 0.785690
v -0.886028 1.614409 -0.785690
v -0.000688 1.614409 -0.785690
v -0.886028 2.654080 0.785690
v -0.000688 2.654080 0.785690
v -0.886028 2.654080 -0.785690
v -0.000688 2.654080 -0.785690
v -0.671924 2.787616 0.664806
v 0.032812 2.787616 0.664806
v -0.671924 2.787616 -0.664806
v 0.032812 2.787616 -0.664806
vt 0.447981 0.177019
vt 0.447981 0.072981
vt 0.447981 0.072981
vt 0.447981 0.177019
vt 0.375000 0.250000
vt 0.625000 0.250000
vt 0.625000 0.500000
vt 0.375000 0.500000
vt 0.625000 0.750000
vt 0.375000 0.750000
vt 0.625000 0.500000
vt 0.625000 0.750000
vt 0.625000 0.750000
vt 0.625000 0.500000
vt 0.281807 0.656813
vt 0.218193 0.656813
vt 0.218193 0.656813
vt 0.281807 0.656813
vt 0.875000 0.500000
vt 0.875000 0.750000
vt 0.310037 0.564963
vt 0.189963 0.564963
vt 0.125000 0.500000
vt 0.375000 0.500000
vt 0.189963 0.685037
vt 0.310037 0.685037
vt 0.375000 0.750000
vt 0.125000 0.750000
vt 0.300613 0.574387
vt 0.199387 0.574387
vt 0.199387 0.675613
vt 0.300613 0.675613
vt 0.281807 0.593188
vt 0.218193 0.593188
vt 0.218193 0.656813
vt 0.281807 0.656813
vt 0.281807 0.593188
vt 0.218193 0.593188
vt 0.218193 0.656813
vt 0.281807 0.656813
vt 0.281807 0.593188
vt 0.218193 0.593188
vt 0.218193 0.656813
vt 0.281807 0.656813
vt 0.281807 0.593188
vt 0.218193 0.593188
vt 0.269857 0.646353
vt 0.230143 0.646353
vt 0.230143 0.646353
vt 0.269857 0.646353
vt 0.281807 0.593188
vt 0.218193 0.593188
vt 0.269857 0.603647
vt 0.230143 0.603647
vt 0.230143 0.646353
vt 0.269857 0.646353
vt 0.269857 0.603647
vt 0.230143 0.603647
vt 0.230143 0.603647
vt 0.269857 0.603647
vt 0.625000 0.750000
vt 0.625000 0.500000
vt 0.125000 0.750000
vt 0.125000 0.500000
vt 0.375000 0.500000
vt 0.375000 0.250000
vt 0.375000 0.750000
vt 0.625000 0.750000
vt 0.625000 0.500000
vt 0.375000 0.500000
vt 0.375000 0.250000
vt 0.125000 0.750000
vt 0.125000 0.500000
vt 0.375000 0.750000
vt 0.413926 0.785967
vt 0.586074 0.785967
vt 0.586074 0.785967
vt 0.413926 0.785967
vt 0.375000 0.500000
vt 0.375000 0.250000
vt 0.125000 0.750000
vt 0.125000 0.500000
vt 0.375000 0.750000
vt 0.413926 0.964033
vt 0.375000 1.000000
vt 0.586074 0.964033
vt 0.625000 1.000000
vt 0.586074 0.785967
vt 0.413926 0.785967
vt 0.413926 0.964033
vt 0.586074 0.964033
vt 0.446543 0.821351
vt 0.553457 0.821351
vt 0.553457 0.821351
vt 0.446543 0.821351
vt 0.413926 0.964033
vt 0.586074 0.964033
vt 0.446543 0.928649
vt 0.553457 0.928649
vt 0.553457 0.821351
vt 0.446543 0.821351
vt 0.446543 0.928649
vt 0.553457 0.928649
vt 0.553457 0.928649
vt 0.446543 0.928649
vt 0.552019 0.177019
vt 0.625000 0.250000
vt 0.375000 0.250000
vt 0.375000 0.000000
vt 0.552019 0.072981
vt 0.625000 0.000000
vt 0.447981 0.072981
vt 0.447981 0.177019
vt 0.552019 0.177019
vt 0.552019 0.072981
vt 0.447981 0.072981
vt 0.447981 0.177019
vt 0.552019 0.177019
vt 0.552019 0.072981
vt 0.552019 0.072981
vt 0.552019 0.177019
vt 0.447981 0.177019
vt 0.447981 0.177019
vt 0.447981 0.072981
vt 0.447981 0.072981
vt 0.375000 0.250000
vt 0.375000 0.500000
vt 0.625000 0.500000
vt 0.625000 0.250000
vt 0.375000 0.750000
vt 0.625000 0.750000
vt 0.625000 0.500000
vt 0.625000 0.500000
vt 0.625000 0.750000
vt 0.625000 0.750000
vt 0.281807 0.656813
vt 0.281807 0.656813
vt 0.218193 0.656813
vt 0.218193 0.656813
vt 0.875000 0.750000
vt 0.875000 0.500000
vt 0.310037 0.564963
vt 0.375000 0.500000
vt 0.125000 0.500000
vt 0.189963 0.564963
vt 0.189963 0.685037
vt 0.125000 0.750000
vt 0.375000 0.750000
vt 0.310037 0.685037
vt 0.300613 0.574387
vt 0.199387 0.574387
vt 0.199387 0.675613
vt 0.300613 0.675613
vt 0.281807 0.593188
vt 0.218193 0.593188
vt 0.281807 0.656813
vt 0.218193 0.656813
vt 0.281807 0.593188
vt 0.218193 0.593188
vt 0.281807 0.656813
vt 0.218193 0.656813
vt 0.281807 0.593188
vt 0.218193 0.593188
vt 0.281807 0.656813
vt 0.218193 0.656813
vt 0.281807 0.593188
vt 0.218193 0.593188
vt 0.269857 0.646353
vt 0.269857 0.646353
vt 0.230143 0.646353
vt 0.230143 0.646353
vt 0.281807 0.593188
vt 0.218193 0.593188
vt 0.269857 0.603647
vt 0.230143 0.603647
vt 0.269857 0.646353
vt 0.230143 0.646353
vt 0.269857 0.603647
vt 0.230143 0.603647
vt 0.230143 0.603647
vt 0.269857 0.603647
vt 0.625000 0.500000
vt 0.625000 0.750000
vt 0.125000 0.500000
vt 0.125000 0.750000
vt 0.375000 0.250000
vt 0.375000 0.500000
vt 0.375000 0.750000
vt 0.625000 0.500000
vt 0.625000 0.750000
vt 0.375000 0.250000
vt 0.375000 0.500000
vt 0.125000 0.500000
vt 0.125000 0.750000
vt 0.375000 0.750000
vt 0.413926 0.785967
vt 0.413926 0.785967
vt 0.586074 0.785967
vt 0.586074 0.785967
vt 0.375000 0.250000
vt 0.375000 0.500000
vt 0.125000 0.500000
vt 0.125000 0.750000
vt 0.375000 0.750000
vt 0.375000 1.000000
vt 0.413926 0.964033
vt 0.625000 1.000000
vt 0.586074 0.964033
vt 0.413926 0.785967
vt 0.586074 0.785967
vt 0.586074 0.964033
vt 0.413926 0.964033
vt 0.446543 0.821351
vt 0.446543 0.821351
vt 0.553457 0.821351
vt 0.553457 0.821351
vt 0.586074 0.964033
vt 0.413926 0.964033
vt 0.446543 0.928649
vt 0.553457 0.928649
vt 0.446543 0.821351
vt 0.553457 0.821351
vt 0.553457 0.928649
vt 0.446543 0.928649
vt 0.446543 0.928649
vt 0.553457 0.928649
vt 0.375000 0.250000
vt 0.625000 0.250000
vt 0.552019 0.177019
vt 0.375000 0.000000
vt 0.625000 0.000000
vt 0.552019 0.072981
vt 0.447981 0.177019
vt 0.447981 0.072981
vt 0.552019 0.072981
vt 0.552019 0.177019
vt 0.447981 0.177019
vt 0.447981 0.072981
vt 0.552019 0.072981
vt 0.552019 0.177019
vt 0.552019 0.177019
vt 0.552019 0.072981
vn 0.8399 -0.5427 0.0000
vn 0.0000 0.0000 1.0000
vn -1.0000 0.0000 0.0022
vn 0.0000 -0.0660 -0.9978
vn -0.6149 0.0000 0.7886
vn 0.0000 0.0000 -1.0000
vn 0.9588 0.0000 -0.2840
vn 0.9588 0.0000 0.2840
vn 0.9588 0.2840 0.0000
vn 0.9588 -0.2840 0.0000
vn 0.0519 0.0000 -0.9987
vn 0.0519 0.0000 0.9987
vn 0.0519 0.9987 0.0000
vn 0.0519 -0.9987 0.0000
vn 1.0000 0.0000 0.0000
vn -0.6524 0.7579 0.0000
vn -0.6524 -0.7579 0.0000
vn -0.6149 0.0000 -0.7886
vn 0.2728 0.0000 0.9621
vn 0.0000 1.0000 0.0000
vn 0.0000 -1.0000 0.0000
vn 0.0165 0.0000 0.9999
vn 0.2198 0.9755 0.0000
vn 0.2198 -0.9755 0.0000
vn 0.2728 0.0000 -0.9621
vn -0.9524 0.0000 0.3047
vn 0.0347 0.9994 0.0000
vn 0.0347 -0.9994 0.0000
vn 0.0165 0.0000 -0.9999
vn 0.8839 0.0000 -0.4677
vn 0.8839 0.0000 0.4677
vn 0.8839 0.4677 0.0000
vn 0.8839 -0.4677 0.0000
vn -0.9307 0.3658 0.0000
vn -0.9307 -0.3658 0.0000
vn -0.9524 0.0000 -0.3047
vn 0.9848 -0.1735 0.0000
vn 0.0000 -0.0660 0.9978
vn -1.0000 0.0037 0.0012
vn 0.0000 -0.0715 -0.9974
vn 0.9285 0.3713 0.0000
vn -0.9988 0.0496 0.0000
vn 0.0000 0.8325 -0.5541
vn 0.0000 -0.0715 0.9974
vn 0.9953 -0.0972 0.0000
vn -0.9953 -0.0972 0.0000
vn -0.3556 -0.9346 0.0000
vn 0.0000 -0.9500 -0.3123
vn 0.0000 -0.9500 0.3123
vn 0.3556 -0.9346 0.0000
vn 0.0000 -0.0509 -0.9987
vn 0.0000 0.8325 0.5541
vn 0.5594 0.8289 0.0000
vn -0.5594 0.8289 0.0000
vn 0.0000 0.8988 -0.4383
vn 0.0000 -0.0509 0.9987
vn 0.9990 -0.0445 0.0000
vn -0.9990 -0.0445 0.0000
vn -0.3008 -0.9537 0.0000
vn 0.0000 -0.9537 -0.3008
vn 0.0000 -0.9537 0.3008
vn 0.3009 -0.9537 0.0000
vn 0.0000 -0.2086 -0.9780
vn 0.0000 0.8988 0.4383
vn 0.4844 0.8748 0.0000
vn -0.4844 0.8748 0.0000
vn 0.0000 0.9461 0.3238
vn -1.0000 0.0000 0.0000
vn 0.0000 0.9404 0.3400
vn 0.1510 0.9885 0.0000
vn -0.9992 -0.0390 0.0016
vn 0.0000 0.9404 -0.3400
vn -0.9997 0.0248 0.0000
vn 0.0000 -0.6755 -0.7373
vn 0.0000 -0.6755 0.7373
vn 0.5292 0.8485 0.0000
vn -0.9699 -0.2433 0.0000
vn 0.0000 0.6711 -0.7414
vn 0.0000 0.6711 0.7414
vn -0.8399 -0.5427 0.0000
vn 1.0000 0.0000 0.0022
vn 0.6149 0.0000 0.7886
vn -0.9588 0.0000 -0.2840
vn -0.9588 0.0000 0.2840
vn -0.9588 0.2840 0.0000
vn -0.9588 -0.2840 0.0000
vn -0.0519 0.0000 -0.9987
vn -0.0519 0.0000 0.9987
vn -0.0519 0.9987 0.0000
vn -0.0519 -0.9987 0.0000
vn 0.6524 0.7579 0.0000
vn 0.6524 -0.7579 0.0000
vn 0.6149 0.0000 -0.7886
vn -0.2728 0.0000 0.9621
vn -0.0165 0.0000 0.9999
vn -0.2198 0.9755 0.0000
vn -0.2198 -0.9755 0.0000
vn -0.2728 0.0000 -0.9621
vn 0.9524 0.0000 0.3047
vn -0.0347 0.9994 0.0000
vn -0.0347 -0.9994 0.0000
vn -0.0165 0.0000 -0.9999
vn -0.8839 0.0000 -0.4677
vn -0.8839 0.0000 0.4677
vn -0.8839 0.4677 0.0000
vn -0.8839 -0.4677 0.0000
vn 0.9307 0.3658 0.0000
vn 0.9307 -0.3658 0.0000
vn 0.9524 0.0000 -0.3047
vn -0.9848 -0.1735 0.0000
vn 1.0000 0.0037 0.0012
vn -0.9285 0.3713 0.0000
vn 0.9988 0.0496 0.0000
vn 0.3008 -0.9537 0.0000
vn -0.3009 -0.9537 0.0000
vn -0.1510 0.9885 0.0000
vn 0.9992 -0.0390 0.0016
vn 0.9997 0.0248 0.0000
vn -0.5292 0.8485 0.0000
vn 0.9699 -0.2433 0.0000
usemtl body
s off
f 11/1/1 9/2/1 91/3/1 89/4/1
f 12/5/2 85/6/2 86/7/2 8/8/2
f 8/8/3 86/7/3 88/9/3 6/10/3
f 6/11/4 10/12/4 51/13/4 49/14/4
f 3/15/5 4/16/5 24/17/5 23/18/5
f 6/11/6 88/19/6 87/20/6 10/12/6
f 13/21/7 14/22/7 10/23/7 87/24/7
f 16/25/8 15/26/8 85/27/8 12/28/8
f 15/26/9 13/21/9 87/24/9 85/27/9
f 14/22/10 16/25/10 12/28/10 10/23/10
f 17/29/11 18/30/11 14/22/11 13/21/11
f 20/31/12 19/32/12 15/26/12 16/25/12
f 19/32/13 17/29/13 13/21/13 15/26/13
f 18/30/14 20/31/14 16/25/14 14/22/14
f 1/33/15 2/34/15 18/30/15 17/29/15
f 4/16/15 3/15/15 19/32/15 20/31/15
f 3/15/15 1/33/15 17/29/15 19/32/15
f 2/34/15 4/16/15 20/31/15 18/30/15
f 23/18/2 24/17/2 28/35/2 27/36/2
f 1/33/16 3/15/16 23/18/16 21/37/16
f 4/16/17 2/34/17 22/38/17 24/17/17
f 2/34/18 1/33/18 21/37/18 22/38/18
f 27/36/19 28/35/19 32/39/19 31/40/19
f 21/37/20 23/18/20 27/36/20 25/41/20
f 24/17/21 22/38/21 26/42/21 28/35/21
f 22/38/6 21/37/6 25/41/6 26/42/6
f 31/40/22 32/39/22 40/43/22 39/44/22
f 25/41/23 27/36/23 31/40/23 29/45/23
f 28/35/24 26/42/24 30/46/24 32/39/24
f 26/42/25 25/41/25 29/45/25 30/46/25
f 35/47/26 36/48/26 44/49/26 43/50/26
f 29/45/27 31/40/27 39/44/27 37/51/27
f 32/39/28 30/46/28 38/52/28 40/43/28
f 30/46/29 29/45/29 37/51/29 38/52/29
f 33/53/30 34/54/30 38/52/30 37/51/30
f 36/48/31 35/47/31 39/44/31 40/43/31
f 35/47/32 33/53/32 37/51/32 39/44/32
f 34/54/33 36/48/33 40/43/33 38/52/33
f 43/50/2 44/49/2 48/55/2 47/56/2
f 33/53/34 35/47/34 43/50/34 41/57/34
f 36/48/35 34/54/35 42/58/35 44/49/35
f 34/54/36 33/53/36 41/57/36 42/58/36
f 46/59/15 45/60/15 47/56/15 48/55/15
f 41/57/20 43/50/20 47/56/20 45/60/20
f 44/49/21 42/58/21 46/59/21 48/55/21
f 42/58/6 41/57/6 45/60/6 46/59/6
f 49/14/6 51/13/6 55/61/6 53/62/6
f 10/23/37 12/28/37 52/63/37 51/64/37
f 12/5/38 8/8/38 50/65/38 52/66/38
f 8/8/39 6/10/39 49/67/39 50/65/39
f 53/62/40 55/61/40 63/68/40 61/69/40
f 52/66/2 50/65/2 54/70/2 56/71/2
f 51/64/41 52/63/41 56/72/41 55/73/41
f 50/65/42 49/67/42 53/74/42 54/70/42
f 57/75/43 59/76/43 67/77/43 65/78/43
f 56/71/44 54/70/44 62/79/44 64/80/44
f 55/73/45 56/72/45 64/81/45 63/82/45
f 54/70/46 53/74/46 61/83/46 62/79/46
f 57/75/47 58/84/47 62/85/47 61/83/47
f 59/76/48 57/75/48 61/83/48 63/68/48
f 58/84/49 60/86/49 64/87/49 62/85/49
f 60/86/50 59/76/50 63/68/50 64/87/50
f 65/78/51 67/77/51 75/88/51 73/89/51
f 60/86/52 58/84/52 66/90/52 68/91/52
f 59/76/53 60/86/53 68/91/53 67/77/53
f 58/84/54 57/75/54 65/78/54 66/90/54
f 69/92/55 71/93/55 79/94/55 77/95/55
f 68/91/56 66/90/56 74/96/56 76/97/56
f 67/77/57 68/91/57 76/97/57 75/88/57
f 66/90/58 65/78/58 73/89/58 74/96/58
f 69/92/59 70/98/59 74/96/59 73/89/59
f 71/93/60 69/92/60 73/89/60 75/88/60
f 70/98/61 72/99/61 76/97/61 74/96/61
f 72/99/62 71/93/62 75/88/62 76/97/62
f 77/95/63 79/94/63 83/100/63 81/101/63
f 72/99/64 70/98/64 78/102/64 80/103/64
f 71/93/65 72/99/65 80/103/65 79/94/65
f 70/98/66 69/92/66 77/95/66 78/102/66
f 81/101/21 83/100/21 84/104/21 82/105/21
f 80/103/67 78/102/67 82/105/67 84/104/67
f 79/94/15 80/103/15 84/104/15 83/100/15
f 78/102/68 77/95/68 81/101/68 82/105/68
f 11/1/69 7/106/69 86/107/69 85/108/69
f 9/2/70 11/1/70 85/108/70 87/109/70
f 7/106/71 5/110/71 88/111/71 86/107/71
f 5/110/72 9/2/72 87/109/72 88/111/72
f 89/4/15 91/3/15 95/112/15 93/113/15
f 5/110/73 7/106/73 90/114/73 92/115/73
f 9/2/74 5/110/74 92/115/74 91/3/74
f 7/106/75 11/1/75 89/4/75 90/114/75
f 93/113/76 95/112/76 99/116/76 97/117/76
f 92/115/68 90/114/68 94/118/68 96/119/68
f 91/3/6 92/115/6 96/119/6 95/112/6
f 90/114/2 89/4/2 93/113/2 94/118/2
f 99/116/20 100/120/20 98/121/20 97/117/20
f 96/119/77 94/118/77 98/121/77 100/120/77
f 95/112/78 96/119/78 100/120/78 99/116/78
f 94/118/79 93/113/79 97/117/79 98/121/79
f 111/122/80 189/123/80 191/124/80 109/125/80
f 112/126/2 108/127/2 186/128/2 185/129/2
f 108/127/81 106/130/81 188/131/81 186/128/81
f 106/132/4 149/133/4 151/134/4 110/135/4
f 103/136/82 123/137/82 124/138/82 104/139/82
f 106/132/6 110/135/6 187/140/6 188/141/6
f 113/142/83 187/143/83 110/144/83 114/145/83
f 116/146/84 112/147/84 185/148/84 115/149/84
f 115/149/85 185/148/85 187/143/85 113/142/85
f 114/145/86 110/144/86 112/147/86 116/146/86
f 117/150/87 113/142/87 114/145/87 118/151/87
f 120/152/88 116/146/88 115/149/88 119/153/88
f 119/153/89 115/149/89 113/142/89 117/150/89
f 118/151/90 114/145/90 116/146/90 120/152/90
f 101/154/68 117/150/68 118/151/68 102/155/68
f 104/139/68 120/152/68 119/153/68 103/136/68
f 103/136/68 119/153/68 117/150/68 101/154/68
f 102/155/68 118/151/68 120/152/68 104/139/68
f 123/137/2 127/156/2 128/157/2 124/138/2
f 101/154/91 121/158/91 123/137/91 103/136/91
f 104/139/92 124/138/92 122/159/92 102/155/92
f 102/155/93 122/159/93 121/158/93 101/154/93
f 127/156/94 131/160/94 132/161/94 128/157/94
f 121/158/20 125/162/20 127/156/20 123/137/20
f 124/138/21 128/157/21 126/163/21 122/159/21
f 122/159/6 126/163/6 125/162/6 121/158/6
f 131/160/95 139/164/95 140/165/95 132/161/95
f 125/162/96 129/166/96 131/160/96 127/156/96
f 128/157/97 132/161/97 130/167/97 126/163/97
f 126/163/98 130/167/98 129/166/98 125/162/98
f 135/168/99 143/169/99 144/170/99 136/171/99
f 129/166/100 137/172/100 139/164/100 131/160/100
f 132/161/101 140/165/101 138/173/101 130/167/101
f 130/167/102 138/173/102 137/172/102 129/166/102
f 133/174/103 137/172/103 138/173/103 134/175/103
f 136/171/104 140/165/104 139/164/104 135/168/104
f 135/168/105 139/164/105 137/172/105 133/174/105
f 134/175/106 138/173/106 140/165/106 136/171/106
f 143/169/2 147/176/2 148/177/2 144/170/2
f 133/174/107 141/178/107 143/169/107 135/168/107
f 136/171/108 144/170/108 142/179/108 134/175/108
f 134/175/109 142/179/109 141/178/109 133/174/109
f 146/180/68 148/177/68 147/176/68 145/181/68
f 141/178/20 145/181/20 147/176/20 143/169/20
f 144/170/21 148/177/21 146/180/21 142/179/21
f 142/179/6 146/180/6 145/181/6 141/178/6
f 149/133/6 153/182/6 155/183/6 151/134/6
f 110/144/110 151/184/110 152/185/110 112/147/110
f 112/126/38 152/186/38 150/187/38 108/127/38
f 108/127/111 150/187/111 149/188/111 106/130/111
f 153/182/40 161/189/40 163/190/40 155/183/40
f 152/186/2 156/191/2 154/192/2 150/187/2
f 151/184/112 155/193/112 156/194/112 152/185/112
f 150/187/113 154/192/113 153/195/113 149/188/113
f 157/196/43 165/197/43 167/198/43 159/199/43
f 156/191/44 164/200/44 162/201/44 154/192/44
f 155/193/46 163/202/46 164/203/46 156/194/46
f 154/192/45 162/201/45 161/204/45 153/195/45
f 157/196/50 161/204/50 162/205/50 158/206/50
f 159/199/48 163/190/48 161/204/48 157/196/48
f 158/206/49 162/205/49 164/207/49 160/208/49
f 160/208/47 164/207/47 163/190/47 159/199/47
f 165/197/51 173/209/51 175/210/51 167/198/51
f 160/208/52 168/211/52 166/212/52 158/206/52
f 159/199/54 167/198/54 168/211/54 160/208/54
f 158/206/53 166/212/53 165/197/53 157/196/53
f 169/213/55 177/214/55 179/215/55 171/216/55
f 168/211/56 176/217/56 174/218/56 166/212/56
f 167/198/58 175/210/58 176/217/58 168/211/58
f 166/212/57 174/218/57 173/209/57 165/197/57
f 169/213/114 173/209/114 174/218/114 170/219/114
f 171/216/60 175/210/60 173/209/60 169/213/60
f 170/219/61 174/218/61 176/217/61 172/220/61
f 172/220/115 176/217/115 175/210/115 171/216/115
f 177/214/63 181/221/63 183/222/63 179/215/63
f 172/220/64 180/223/64 178/224/64 170/219/64
f 171/216/66 179/215/66 180/223/66 172/220/66
f 170/219/65 178/224/65 177/214/65 169/213/65
f 181/221/21 182/225/21 184/226/21 183/222/21
f 180/223/67 184/226/67 182/225/67 178/224/67
f 179/215/68 183/222/68 184/226/68 180/223/68
f 178/224/15 182/225/15 181/221/15 177/214/15
f 111/122/69 185/227/69 186/228/69 107/229/69
f 109/125/116 187/230/116 185/227/116 111/122/116
f 107/229/117 186/228/117 188/231/117 105/232/117
f 105/232/72 188/231/72 187/230/72 109/125/72
f 189/123/68 193/233/68 195/234/68 191/124/68
f 105/232/118 192/235/118 190/236/118 107/229/118
f 109/125/74 191/124/74 192/235/74 105/232/74
f 107/229/75 190/236/75 189/123/75 111/122/75
f 193/233/119 197/237/119 199/238/119 195/234/119
f 192/235/15 196/239/15 194/240/15 190/236/15
f 191/124/6 195/234/6 196/239/6 192/235/6
f 190/236/2 194/240/2 193/233/2 189/123/2
f 199/238/20 197/237/20 198/241/20 200/242/20
f 196/239/120 200/242/120 198/241/120 194/240/120
f 195/234/78 199/238/78 200/242/78 196/239/78
f 194/240/79 198/241/79 197/237/79 193/233/79
